<svg class="navigation__logo" width="34" height="34" xmlns="http://www.w3.org/2000/svg" xmlns:svg="http://www.w3.org/2000/svg" preserveAspectRatio="xMinYMin">
	<style type="text/css">
                .st0 {
                    fill: #CE5368;
                }

                .st1 {
                    fill: #2E318F;
                }
            </style>
	<g>
		<path id="svg_2" class="st0" d="M12.6,4.6c0-2.5,2.1-4.6,4.7-4.6s4.7,2.1,4.7,4.7c0,2.5-2.1,4.6-4.7,4.6S12.6,7.2,12.6,4.6"></path>
		<path id="svg_3" class="st0" d="M24.5,21.7c0-2.5,2.1-4.6,4.7-4.6c2.5,0,4.7,2.1,4.7,4.6s-2.1,4.7-4.6,4.7
                    C26.6,26.4,24.5,24.3,24.5,21.7"></path>
		<path id="svg_4" class="st0" d="M0.6,21.7c0-2.5,2.1-4.6,4.7-4.6c2.5,0,4.7,2.1,4.7,4.6s-2.1,4.7-4.7,4.7
                    C2.7,26.4,0.6,24.3,0.6,21.7"></path>
		<path id="svg_5" class="st1" d="M32.7,6.6c0.5,0.3,1,0.7,1.4,1.2c-3.3,2.7-8.5,5.2-10.6,8.9c-2.2,3.7-1.8,9.3-2.5,15
                    c-1.8,0.7-4.6,1.6-6.9,2.1c-0.6-4.8-0.4-12-2.3-15.4c-1.8-3-6.8-5.6-11.7-9c2-1,4.3-2.1,6.1-2.8c3.2,1.5,8.6,5.6,12.7,5.6
                    C22.6,12.2,29.1,8.1,32.7,6.6"></path>
		<!-- <path id="svg_6" class="st1" d="M67.7,33.8v-8.2c0,0,0.2,0.1,0.3,0.2c0.5,0.3,1.8,0.6,2.6,0.6c5.9,0,9.5-3.7,9.5-9.7
                    c0-4.8-2.5-8.3-7.5-8.3c-2,0-3.6,0.7-4.7,1.5l-0.3,0.2V8.1c-1.5,0.1-3.7,0.4-5.2,0.8v24.8L67.7,33.8C67.7,33.8,67.7,33.8,67.7,33.8
                    z M70,22.2c-0.7,0-1.2,0-2.2-0.3v-8.2c0.9-0.8,2.1-1.2,3.2-1.2c2.8,0,4,1.8,4,4.6C74.9,20.3,73.2,22.2,70,22.2"></path>
		<path id="svg_7" class="st1" d="M87.6,17.7c0,2.9,1.2,4.6,4,4.6c1.1,0,2.2-0.4,3.2-1.2v-8.2h-1.9C89.7,12.8,87.6,14.4,87.6,17.7
                    M90.3,33.8c-2.2,0-5-0.3-6.8-1.2v-4.2h0.3c1.5,0.7,3.6,1.3,5.9,1.3c2.5,0,5.1-1.5,5.1-3.7v-1.3c0,0-0.2,0.2-0.3,0.2
                    c-1.1,0.8-2.6,1.5-4.7,1.5c-4.8,0-7.5-3.3-7.5-8.2c0-6.2,4.2-9.5,10.3-9.5h7.3v16C100.1,30.8,96.4,33.8,90.3,33.8"></path>
		<path id="svg_8" class="st1" d="M47.7,26.4c2.2,0,4-0.7,5.1-1.8l0.1-0.1c0,0,0,0.1,0.1,0.1c0.7,1.3,2.1,1.8,3.8,1.8
                    c0.8,0,2.5-0.2,3.3-0.4v-3.6h-1.1c-1.1,0-1.4-0.4-1.4-1.5v-7.1c0-3.7-2.5-5.6-7.6-5.6c-1.9,0-4.3,0.3-6.5,1.1v4.2h0.3
                    c1.7-0.8,3.4-1.1,4.9-1.1c2.2,0,3.6,0.6,3.6,2.5v0.5h-2.8c-4.2,0-7.9,1.5-7.9,5.7C41.6,24.4,44.2,26.4,47.7,26.4 M46.7,20.4
                    c0-1.5,1.4-2.1,2.9-2.1h2.6v3.1c-0.7,0.5-1.8,0.9-2.9,0.9C47.8,22.3,46.7,21.9,46.7,20.4"></path> -->
	</g>
</svg>