<svg width="400" height="400" viewBox="0 0 400 400" fill="none" xmlns="http://www.w3.org/2000/svg">
<path d="M400 200C400 310.457 310.457 400 200 400C89.5431 400 0 310.457 0 200C0 89.5431 89.5431 0 200 0C310.457 0 400 89.5431 400 200Z" fill="#2B2B2B"/>
<path d="M182.84 141.59C188.56 141.59 193.327 142.397 197.14 144.01C201.1 145.623 204.18 147.677 206.38 150.17C209.02 152.957 210.853 156.697 211.88 161.39C212.907 165.937 213.42 171.73 213.42 178.77V237.95C213.42 244.11 214.447 248.29 216.5 250.49C218.7 252.69 222.367 253.79 227.5 253.79V258.41C224.86 258.263 220.9 258.117 215.62 257.97C210.34 257.677 205.207 257.53 200.22 257.53C194.94 257.53 189.807 257.677 184.82 257.97C179.98 258.117 176.313 258.263 173.82 258.41V253.79C178.073 253.79 181.08 252.69 182.84 250.49C184.747 248.29 185.7 244.11 185.7 237.95V171.29C185.7 167.33 185.407 163.81 184.82 160.73C184.233 157.503 182.987 155.01 181.08 153.25C179.173 151.343 176.24 150.39 172.28 150.39C167.733 150.39 163.627 151.71 159.96 154.35C156.293 156.99 153.36 160.657 151.16 165.35C149.107 169.897 148.08 175.03 148.08 180.75V237.95C148.08 244.11 148.96 248.29 150.72 250.49C152.48 252.69 155.56 253.79 159.96 253.79V258.41C157.467 258.263 153.8 258.117 148.96 257.97C144.267 257.677 139.427 257.53 134.44 257.53C129.013 257.53 123.513 257.677 117.94 257.97C112.367 258.117 108.187 258.263 105.4 258.41V253.79C110.827 253.79 114.64 252.69 116.84 250.49C119.187 248.29 120.36 244.11 120.36 237.95V168.65C120.36 162.05 119.26 157.21 117.06 154.13C115.007 150.903 111.12 149.29 105.4 149.29V144.67C110.093 145.11 114.64 145.33 119.04 145.33C124.467 145.33 129.6 145.11 134.44 144.67C139.427 144.083 143.973 143.277 148.08 142.25V164.25C151.747 156.183 156.66 150.39 162.82 146.87C168.98 143.35 175.653 141.59 182.84 141.59ZM249.06 141.59C254.78 141.59 259.547 142.397 263.36 144.01C267.32 145.623 270.4 147.677 272.6 150.17C275.24 152.957 277.073 156.697 278.1 161.39C279.127 165.937 279.64 171.73 279.64 178.77V237.95C279.64 244.11 280.74 248.29 282.94 250.49C285.287 252.69 289.173 253.79 294.6 253.79V258.41C291.96 258.263 287.853 258.117 282.28 257.97C276.853 257.677 271.573 257.53 266.44 257.53C261.16 257.53 256.027 257.677 251.04 257.97C246.2 258.117 242.533 258.263 240.04 258.41V253.79C244.293 253.79 247.3 252.69 249.06 250.49C250.967 248.29 251.92 244.11 251.92 237.95V171.29C251.92 167.33 251.553 163.81 250.82 160.73C250.233 157.503 248.913 155.01 246.86 153.25C244.807 151.343 241.727 150.39 237.62 150.39C233.073 150.39 228.967 151.783 225.3 154.57C221.633 157.357 218.7 161.097 216.5 165.79C214.447 170.337 213.347 175.47 213.2 181.19L212.1 165.35C216.06 156.257 221.34 150.023 227.94 146.65C234.54 143.277 241.58 141.59 249.06 141.59Z" fill="#F6F6F6"/>
</svg>
